<?xml version="1.0" encoding="utf-8"?>
<!-- Generator: Adobe Illustrator 27.5.0, SVG Export Plug-In . SVG Version: 6.00 Build 0)  -->
<svg version="1.1" xmlns="http://www.w3.org/2000/svg" xmlns:xlink="http://www.w3.org/1999/xlink" x="0px" y="0px"
	 viewBox="0 0 500 500" style="enable-background:new 0 0 500 500;" xml:space="preserve">
<g id="BACKGROUND">
	<rect style="fill:#FFFFFF;" width="500" height="500"/>
</g>
<g id="OBJECTS">
	<g>
		<g>
			<path style="fill:#FF7B7D;" d="M356.51,324.338H143.49c-6.16,0-10.99-5.29-10.43-11.42l14.78-163.88
				c0.49-5.4,5.02-9.53,10.44-9.53h39.32v11.08c0,5.12,4.16,9.28,9.28,9.28c5.12,0,9.28-4.16,9.28-9.28v-11.08h67.68v11.08
				c0,5.12,4.16,9.28,9.28,9.28s9.28-4.16,9.28-9.28v-11.08h39.32c5.42,0,9.95,4.13,10.44,9.53l14.78,163.88
				C367.5,319.048,362.67,324.338,356.51,324.338z"/>
		</g>
		<g>
			<path style="fill:#FF7B7D;" d="M250,90.582c-26.687,0-48.399,21.712-48.399,48.399v0.525v11.085c0,2.916,2.364,5.279,5.279,5.279
				h0c2.916,0,5.279-2.364,5.279-5.279v-11.085v-0.525c0-20.865,16.975-37.84,37.84-37.84c20.865,0,37.84,16.975,37.84,37.84v0.525
				v11.085c0,2.916,2.364,5.279,5.279,5.279h0c2.916,0,5.28-2.364,5.28-5.279v-11.085v-0.525
				C298.4,112.294,276.687,90.582,250,90.582z"/>
		</g>
	</g>
	<g>
		<defs>
			<path id="SVGID_1_" d="M352.157,149.04c-0.487-5.399-5.013-9.535-10.434-9.535H250h-91.723c-5.421,0-9.946,4.135-10.434,9.535
				l-14.786,163.88c-0.553,6.132,4.276,11.417,10.433,11.417H250h106.509c6.157,0,10.987-5.285,10.433-11.417L352.157,149.04z"/>
		</defs>
		<clipPath id="SVGID_00000057145107592989484230000010854327990841467548_">
			<use xlink:href="#SVGID_1_"  style="overflow:visible;"/>
		</clipPath>
		<g style="clip-path:url(#SVGID_00000057145107592989484230000010854327990841467548_);">
			
				<path style="fill:#FFFFFF;stroke:#FFFFFF;stroke-width:12;stroke-linecap:round;stroke-linejoin:round;stroke-miterlimit:10;" d="
				M314.843,205.313c-2.653-2.226-5.869-3.676-9.294-4.19l-2.74-0.411l0,0.001l-23.296-4.263l-0.002,0c0,0,0-0.001,0-0.001
				l-2.655-0.487l-5.52-1.015c0,0.001-0.001,0.002-0.001,0.003l-0.001,0c-0.006,0.016-0.013,0.031-0.019,0.046
				c-2.674-1.658-4.573-4.408-5.11-7.616l-1.55-10.897h-0.007c0-0.001,0-0.003,0-0.004c0-1.579-3.019-2.955-7.489-3.672
				c-0.398-0.066-0.818-0.12-1.238-0.175c0.7-1.093,1.11-2.389,1.11-3.783c0-3.884-3.148-7.032-7.032-7.032
				c-3.884,0-7.032,3.148-7.032,7.032c0,1.394,0.411,2.69,1.11,3.783c-0.42,0.055-0.84,0.109-1.238,0.175
				c-4.471,0.717-7.489,2.093-7.489,3.672c0,0.001,0,0.002,0,0.004h-0.007l-1.55,10.897c-0.536,3.207-2.436,5.958-5.11,7.616
				c-0.006-0.016-0.013-0.031-0.019-0.046l-0.001,0c0-0.001-0.001-0.002-0.001-0.003l-5.52,1.015l-2.655,0.487
				c0,0,0,0.001,0.001,0.001l-0.002,0l-23.296,4.263l0-0.001l-2.74,0.411c-3.425,0.514-6.641,1.964-9.294,4.19l-28.615,24.004
				c0,0,7.679,24.824,26.402,35.974l3.401-3.305l-2.695,15.228c6.397,3.037,13.45,5.634,21.004,7.733
				c-0.766,2.633-1.726,5.213-2.892,7.711c-4.48,9.556-11.222,26.188-13.803,44.191c18.833,5.441,39.859,8.471,62.04,8.471
				s43.207-3.03,62.04-8.471c-2.581-18.004-9.324-34.635-13.803-44.191c-1.166-2.498-2.126-5.077-2.892-7.711
				c7.554-2.099,14.608-4.695,21.004-7.733l-2.695-15.228l3.401,3.305c18.723-11.15,26.402-35.974,26.402-35.974L314.843,205.313z"
				/>
			<g>
				<g>
					<g>
						<path style="fill:#FFFFFF;" d="M312.04,336.849c-18.833,5.441-39.859,8.471-62.04,8.471s-43.207-3.03-62.04-8.471
							c2.581-18.004,9.324-34.635,13.803-44.191c1.418-3.038,2.55-6.192,3.371-9.424c0.829-3.24,1.364-6.541,1.573-9.889
							c0.395-6.363-0.349-12.741-2.178-18.841c-9.293-30.977-9.82-50.02-9.82-50.02l30.97-8.192
							c4.216-1.116,7.394-4.604,8.114-8.913l1.55-10.897h29.311l1.55,10.897c0.721,4.309,3.898,7.797,8.114,8.913l30.97,8.192
							c0,0-0.527,19.042-9.82,50.02c-1.829,6.099-2.573,12.478-2.178,18.841c0.209,3.348,0.744,6.65,1.573,9.889
							c0.822,3.232,1.953,6.386,3.371,9.424C302.717,302.213,309.459,318.845,312.04,336.849z"/>
						<path style="fill:none;stroke:#020203;stroke-width:3;stroke-linecap:round;stroke-linejoin:round;stroke-miterlimit:10;" d="
							M312.04,336.849c-18.833,5.441-39.859,8.471-62.04,8.471s-43.207-3.03-62.04-8.471c2.581-18.004,9.324-34.635,13.803-44.191
							c1.418-3.038,2.55-6.192,3.371-9.424c0.829-3.24,1.364-6.541,1.573-9.889c0.395-6.363-0.349-12.741-2.178-18.841
							c-9.293-30.977-9.82-50.02-9.82-50.02l30.97-8.192c4.216-1.116,7.394-4.604,8.114-8.913l1.55-10.897h29.311l1.55,10.897
							c0.721,4.309,3.898,7.797,8.114,8.913l30.97,8.192c0,0-0.527,19.042-9.82,50.02c-1.829,6.099-2.573,12.478-2.178,18.841
							c0.209,3.348,0.744,6.65,1.573,9.889c0.822,3.232,1.953,6.386,3.371,9.424C302.717,302.213,309.459,318.845,312.04,336.849z"
							/>
						<path style="fill:#FFFFFF;" d="M264.649,176.479c0,1.484-2.644,2.784-6.646,3.532c-2.296,0.438-5.048,0.685-8.003,0.685
							c-2.955,0-5.707-0.247-8.003-0.685c-4.001-0.748-6.646-2.048-6.646-3.532c0-1.579,3.018-2.955,7.489-3.672
							c2.118-0.349,4.56-0.545,7.159-0.545c2.6,0,5.041,0.197,7.159,0.545C261.63,173.523,264.649,174.9,264.649,176.479z"/>
						<path style="fill:none;stroke:#020203;stroke-width:3;stroke-linecap:round;stroke-linejoin:round;stroke-miterlimit:10;" d="
							M264.649,176.479c0,1.484-2.644,2.784-6.646,3.532c-2.296,0.438-5.048,0.685-8.003,0.685c-2.955,0-5.707-0.247-8.003-0.685
							c-4.001-0.748-6.646-2.048-6.646-3.532c0-1.579,3.018-2.955,7.489-3.672c2.118-0.349,4.56-0.545,7.159-0.545
							c2.6,0,5.041,0.197,7.159,0.545C261.63,173.523,264.649,174.9,264.649,176.479z"/>
					</g>
					<g>
						<circle style="fill:#FFFFFF;" cx="250" cy="168.85" r="7.032"/>
						
							<circle style="fill:none;stroke:#020203;stroke-width:3;stroke-linecap:round;stroke-linejoin:round;stroke-miterlimit:10;" cx="250" cy="168.85" r="7.032"/>
					</g>
				</g>
				<g>
					<path style="fill:#363634;" d="M197.191,200.711l-2.74,0.411c-3.425,0.514-6.641,1.964-9.294,4.19l-28.615,24.004
						c0,0,7.679,24.824,26.402,35.974l3.406-3.31L197.191,200.711z"/>
					<path style="fill:#363634;" d="M302.809,200.711l2.74,0.411c3.425,0.514,6.641,1.964,9.294,4.19l28.615,24.004
						c0,0-7.679,24.824-26.402,35.974l-3.406-3.31L302.809,200.711z"/>
					<path style="fill:none;stroke:#020203;stroke-width:3;stroke-linecap:round;stroke-linejoin:round;stroke-miterlimit:10;" d="
						M197.191,200.711l-2.74,0.411c-3.425,0.514-6.641,1.964-9.294,4.19l-28.615,24.004c0,0,7.679,24.824,26.402,35.974l3.406-3.31
						L197.191,200.711z"/>
					<path style="fill:none;stroke:#020203;stroke-width:3;stroke-linecap:round;stroke-linejoin:round;stroke-miterlimit:10;" d="
						M302.809,200.711l2.74,0.411c3.425,0.514,6.641,1.964,9.294,4.19l28.615,24.004c0,0-7.679,24.824-26.402,35.974l-3.406-3.31
						L302.809,200.711z"/>
					<g>
						<path style="fill:#363634;" d="M316.349,277.214c-18.004,8.548-41.13,13.687-66.349,13.687
							c-25.219,0-48.346-5.138-66.349-13.687l13.54-76.502l23.297-4.263l8.176-1.503c3.193,8.696,11.54,14.896,21.336,14.896
							s18.143-6.2,21.336-14.896l8.176,1.503l23.297,4.263L316.349,277.214z"/>
						<path style="fill:none;stroke:#020203;stroke-width:3;stroke-linecap:round;stroke-linejoin:round;stroke-miterlimit:10;" d="
							M316.349,277.214c-18.004,8.548-41.13,13.687-66.349,13.687c-25.219,0-48.346-5.138-66.349-13.687l13.54-76.502l23.297-4.263
							l8.176-1.503c3.193,8.696,11.54,14.896,21.336,14.896s18.143-6.2,21.336-14.896l8.176,1.503l23.297,4.263L316.349,277.214z"/>
						<path style="fill:#FFFFFF;" d="M271.334,194.949c-3.191,8.695-11.537,14.891-21.334,14.891s-18.143-6.196-21.334-14.891
							l-8.177,1.499c3.956,12.531,15.674,21.617,29.512,21.617c13.837,0,25.555-9.087,29.512-21.617L271.334,194.949z"/>
						<path style="fill:none;stroke:#020203;stroke-width:3;stroke-linecap:round;stroke-linejoin:round;stroke-miterlimit:10;" d="
							M271.334,194.949c-3.191,8.695-11.537,14.891-21.334,14.891s-18.143-6.196-21.334-14.891l-8.177,1.499
							c3.956,12.531,15.674,21.617,29.512,21.617c13.837,0,25.555-9.087,29.512-21.617L271.334,194.949z"/>
					</g>
				</g>
			</g>
			<g>
				<g>
					<polygon style="fill:#FFFFFF;" points="295.384,235.425 277.62,235.425 277.62,220.015 286.502,214.444 295.384,220.015 					
						"/>
				</g>
				<g>
					
						<polygon style="fill:none;stroke:#020203;stroke-width:3;stroke-linecap:round;stroke-linejoin:round;stroke-miterlimit:10;" points="
						295.384,235.425 277.62,235.425 277.62,220.015 286.502,214.444 295.384,220.015 					"/>
				</g>
				<g>
					<path style="fill:#020203;" d="M286.502,216.03c-0.931,0-1.686-0.754-1.686-1.686v-15.565c0-0.931,0.755-1.686,1.686-1.686
						c0.931,0,1.686,0.754,1.686,1.686v15.565C288.188,215.276,287.433,216.03,286.502,216.03z"/>
				</g>
				<g>
					<path style="fill:#020203;" d="M289.86,227.212c0,0.822-0.237,1.48-0.711,1.975c-0.474,0.495-1.048,0.822-1.722,0.98v1.011
						c0,0.368-0.034,0.627-0.103,0.774c-0.069,0.147-0.169,0.247-0.3,0.3c-0.132,0.053-0.308,0.079-0.529,0.079
						c-0.221,0-0.398-0.027-0.529-0.079c-0.132-0.053-0.224-0.148-0.276-0.284c-0.074-0.179-0.111-0.448-0.111-0.806v-0.98
						c-0.432-0.095-0.822-0.253-1.169-0.474c-0.348-0.221-0.59-0.416-0.727-0.585l-0.205-0.268
						c-0.221-0.285-0.332-0.532-0.332-0.743c0-0.211,0.179-0.49,0.537-0.837c0.211-0.2,0.435-0.3,0.672-0.3
						c0.237,0,0.566,0.211,0.987,0.632c0.326,0.4,0.695,0.6,1.106,0.6c0.779,0,1.169-0.321,1.169-0.964
						c0-0.232-0.148-0.411-0.443-0.537c-0.295-0.126-0.653-0.24-1.074-0.34c-0.421-0.1-0.843-0.234-1.264-0.403
						c-0.422-0.168-0.78-0.458-1.074-0.869c-0.295-0.411-0.443-0.932-0.443-1.564c0-0.632,0.2-1.201,0.6-1.706
						c0.4-0.506,0.953-0.832,1.659-0.98v-0.885c0-0.358,0.032-0.616,0.095-0.774c0.105-0.253,0.384-0.379,0.837-0.379
						c0.284,0,0.498,0.061,0.64,0.182c0.142,0.121,0.224,0.25,0.245,0.387c0.021,0.137,0.032,0.337,0.032,0.6v0.885
						c0.295,0.063,0.564,0.153,0.806,0.269c0.242,0.116,0.411,0.211,0.506,0.284l0.142,0.126l0.063,0.047
						c0.263,0.243,0.395,0.442,0.395,0.6c0,0.158-0.124,0.422-0.371,0.79c-0.248,0.369-0.519,0.553-0.814,0.553
						c-0.189,0-0.35-0.047-0.482-0.142c-0.132-0.095-0.235-0.174-0.308-0.237c-0.074-0.063-0.142-0.116-0.205-0.158
						c-0.179-0.116-0.406-0.174-0.679-0.174c-0.274,0-0.5,0.066-0.679,0.198c-0.179,0.132-0.269,0.313-0.269,0.545
						c0,0.232,0.108,0.419,0.324,0.561c0.216,0.142,0.482,0.237,0.798,0.285c0.316,0.047,0.664,0.126,1.043,0.237
						c0.379,0.111,0.727,0.24,1.043,0.387c0.316,0.148,0.582,0.408,0.798,0.782C289.752,226.188,289.86,226.654,289.86,227.212z"/>
				</g>
			</g>
		</g>
	</g>
</g>
<g id="TEXTS">
	
		<text transform="matrix(1 0 0 1 68.6628 378.239)" style="font-family:'FredokaOne-Regular'; font-size:37.4107px; letter-spacing:2;">CLOTHING STORE</text>
	<g>
		
			<text transform="matrix(1 0 0 1 139.5112 403.1619)" style="fill:#FF7B7D; font-family:'FredokaOne-Regular'; font-size:22.2736px; letter-spacing:5;">TAGLINE HERE</text>
	</g>
</g>
</svg>
